<svg width="125" height="4" viewBox="0 0 125 4" fill="none" xmlns="http://www.w3.org/2000/svg">
<path d="M5.46178 3.20368C3.33859 3.20368 3.70784 1 1 1" stroke="currentColor" stroke-miterlimit="10" stroke-linecap="round" stroke-linejoin="round"/>
<path d="M14.4161 3.20368C12.2929 3.20368 12.6622 1 9.95434 1" stroke="currentColor" stroke-miterlimit="10" stroke-linecap="round" stroke-linejoin="round"/>
<path d="M5.46178 3.20368C7.58498 3.20368 7.21573 1 9.92357 1" stroke="currentColor" stroke-miterlimit="10" stroke-linecap="round" stroke-linejoin="round"/>
<path d="M14.4161 3.20368C16.5393 3.20368 16.1701 1 18.8779 1" stroke="currentColor" stroke-miterlimit="10" stroke-linecap="round" stroke-linejoin="round"/>
<path d="M75.361 3.20368C73.2378 3.20368 73.6071 1 70.8992 1" stroke="currentColor" stroke-miterlimit="10" stroke-linecap="round" stroke-linejoin="round"/>
<path d="M84.3153 3.20368C82.1921 3.20368 82.5614 1 79.8536 1" stroke="currentColor" stroke-miterlimit="10" stroke-linecap="round" stroke-linejoin="round"/>
<path d="M75.361 3.20368C77.4842 3.20368 77.115 1 79.8228 1" stroke="currentColor" stroke-miterlimit="10" stroke-linecap="round" stroke-linejoin="round"/>
<path d="M84.3154 3.20368C86.4385 3.20368 86.0693 1 88.7771 1" stroke="currentColor" stroke-miterlimit="10" stroke-linecap="round" stroke-linejoin="round"/>
<path d="M40.4114 3.20368C38.2882 3.20368 38.6574 1 35.9496 1" stroke="currentColor" stroke-miterlimit="10" stroke-linecap="round" stroke-linejoin="round"/>
<path d="M49.3657 3.20368C47.2425 3.20368 47.6118 1 44.9039 1" stroke="currentColor" stroke-miterlimit="10" stroke-linecap="round" stroke-linejoin="round"/>
<path d="M40.4114 3.20368C42.5346 3.20368 42.1653 1 44.8732 1" stroke="currentColor" stroke-miterlimit="10" stroke-linecap="round" stroke-linejoin="round"/>
<path d="M49.3657 3.20368C51.4889 3.20368 51.1197 1 53.8275 1" stroke="currentColor" stroke-miterlimit="10" stroke-linecap="round" stroke-linejoin="round"/>
<path d="M110.311 3.20368C108.187 3.20368 108.557 1 105.849 1" stroke="currentColor" stroke-miterlimit="10" stroke-linecap="round" stroke-linejoin="round"/>
<path d="M119.265 3.20368C117.142 3.20368 117.511 1 114.803 1" stroke="currentColor" stroke-miterlimit="10" stroke-linecap="round" stroke-linejoin="round"/>
<path d="M110.311 3.20368C112.434 3.20368 112.065 1 114.772 1" stroke="currentColor" stroke-miterlimit="10" stroke-linecap="round" stroke-linejoin="round"/>
<path d="M119.265 3.20368C121.388 3.20368 121.019 1 123.727 1" stroke="currentColor" stroke-miterlimit="10" stroke-linecap="round" stroke-linejoin="round"/>
<path d="M22.9366 3.20368C20.8134 3.20368 21.1826 1 18.4748 1" stroke="currentColor" stroke-miterlimit="10" stroke-linecap="round" stroke-linejoin="round"/>
<path d="M31.8909 3.20368C29.7677 3.20368 30.137 1 27.4291 1" stroke="currentColor" stroke-miterlimit="10" stroke-linecap="round" stroke-linejoin="round"/>
<path d="M22.9366 3.20368C25.0598 3.20368 24.6905 1 27.3984 1" stroke="currentColor" stroke-miterlimit="10" stroke-linecap="round" stroke-linejoin="round"/>
<path d="M31.8909 3.20368C34.0141 3.20368 33.6449 1 36.3527 1" stroke="currentColor" stroke-miterlimit="10" stroke-linecap="round" stroke-linejoin="round"/>
<path d="M92.8358 3.20368C90.7126 3.20368 91.0819 1 88.374 1" stroke="currentColor" stroke-miterlimit="10" stroke-linecap="round" stroke-linejoin="round"/>
<path d="M101.79 3.20368C99.6669 3.20368 100.036 1 97.3284 1" stroke="currentColor" stroke-miterlimit="10" stroke-linecap="round" stroke-linejoin="round"/>
<path d="M92.8358 3.20368C94.959 3.20368 94.5898 1 97.2976 1" stroke="currentColor" stroke-miterlimit="10" stroke-linecap="round" stroke-linejoin="round"/>
<path d="M101.79 3.20368C103.913 3.20368 103.544 1 106.252 1" stroke="currentColor" stroke-miterlimit="10" stroke-linecap="round" stroke-linejoin="round"/>
<path d="M57.8862 3.20368C55.763 3.20368 56.1323 1 53.4244 1" stroke="currentColor" stroke-miterlimit="10" stroke-linecap="round" stroke-linejoin="round"/>
<path d="M66.8405 3.20368C64.7174 3.20368 65.0866 1 62.3788 1" stroke="currentColor" stroke-miterlimit="10" stroke-linecap="round" stroke-linejoin="round"/>
<path d="M57.8862 3.20368C60.0094 3.20368 59.6402 1 62.348 1" stroke="currentColor" stroke-miterlimit="10" stroke-linecap="round" stroke-linejoin="round"/>
<path d="M66.8406 3.20368C68.9638 3.20368 68.5945 1 71.3023 1" stroke="currentColor" stroke-miterlimit="10" stroke-linecap="round" stroke-linejoin="round"/>
</svg>
