<svg width="20" height="18" viewBox="0 0 20 18" xmlns="http://www.w3.org/2000/svg">
<path d="M19.822 4.431C19.635 4.161 19.328 4 19 4H5.333L4.179 1.23C3.867 0.482 3.143 0 2.333 0H0V2H2.333L7.077 13.385C7.232 13.757 7.596 14 8 14H16C16.417 14 16.79 13.741 16.937 13.352L19.937 5.352C20.052 5.044 20.009 4.7 19.822 4.431ZM15.307 12H8.667L6.167 6H17.557L15.307 12Z"/>
<path d="M8.5 18C9.32843 18 10 17.3284 10 16.5C10 15.6716 9.32843 15 8.5 15C7.67157 15 7 15.6716 7 16.5C7 17.3284 7.67157 18 8.5 18Z"/>
<path d="M15.5 18C16.3284 18 17 17.3284 17 16.5C17 15.6716 16.3284 15 15.5 15C14.6716 15 14 15.6716 14 16.5C14 17.3284 14.6716 18 15.5 18Z"/>
</svg>
