<svg width="24" height="24" viewBox="0 0 24 24" xmlns="http://www.w3.org/2000/svg">
<path d="M23.1837 7.38126C23.17 6.43501 22.995 5.49626 22.66 4.61126C22.0737 3.10001 20.88 1.90501 19.3687 1.32001C18.495 0.991257 17.5712 0.815007 16.6362 0.795007C15.4337 0.741257 15.0525 0.726257 12 0.726257C8.94747 0.726257 8.55622 0.726257 7.36247 0.795007C6.42872 0.815007 5.50497 0.991257 4.63122 1.32001C3.11997 1.90501 1.92497 3.10001 1.33997 4.61126C1.01122 5.48501 0.833716 6.40876 0.816216 7.34251C0.762466 8.54626 0.746216 8.92751 0.746216 11.98C0.746216 15.0325 0.746216 15.4225 0.816216 16.6175C0.834966 17.5525 1.01122 18.475 1.33997 19.3513C1.92622 20.8613 3.11997 22.0563 4.63247 22.6413C5.50247 22.9813 6.42622 23.1738 7.36372 23.2038C8.56747 23.2575 8.94872 23.2738 12.0012 23.2738C15.0537 23.2738 15.445 23.2738 16.6387 23.2038C17.5725 23.185 18.4962 23.0088 19.3712 22.68C20.8825 22.0938 22.0762 20.8988 22.6625 19.3888C22.9912 18.5138 23.1675 17.5913 23.1862 16.655C23.24 15.4525 23.2562 15.0713 23.2562 12.0175C23.2537 8.96501 23.2537 8.57751 23.1837 7.38126ZM11.9925 17.7525C8.79997 17.7525 6.21372 15.1663 6.21372 11.9738C6.21372 8.78126 8.79997 6.19501 11.9925 6.19501C15.1825 6.19501 17.7712 8.78126 17.7712 11.9738C17.7712 15.1663 15.1825 17.7525 11.9925 17.7525ZM18.0012 7.32876C17.255 7.32876 16.6537 6.72626 16.6537 5.98126C16.6537 5.23626 17.255 4.63376 18.0012 4.63376C18.745 4.63376 19.3475 5.23626 19.3475 5.98126C19.3475 6.72626 18.745 7.32876 18.0012 7.32876Z"/>
<path d="M11.9925 15.7275C14.0657 15.7275 15.7463 14.0469 15.7463 11.9738C15.7463 9.90061 14.0657 8.22 11.9925 8.22C9.91938 8.22 8.23877 9.90061 8.23877 11.9738C8.23877 14.0469 9.91938 15.7275 11.9925 15.7275Z"/>
</svg>
