<svg width="26" height="26" viewBox="0 0 26 26" xmlns="http://www.w3.org/2000/svg">
<path d="M12.9875 0.5C6.09 0.5 0.5 6.09126 0.5 12.9875C0.5 18.2775 3.79125 22.8 8.4375 24.62C8.3275 23.6325 8.23 22.1125 8.48 21.035C8.7075 20.06 9.945 14.8275 9.945 14.8275C9.945 14.8275 9.57125 14.0787 9.57125 12.9725C9.57125 11.2375 10.5775 9.94126 11.8313 9.94126C12.8975 9.94126 13.4113 10.7413 13.4113 11.7C13.4113 12.7725 12.7287 14.3738 12.3775 15.8588C12.0837 17.1013 13.0013 18.115 14.2263 18.115C16.445 18.115 18.1525 15.775 18.1525 12.3962C18.1525 9.40625 16.0037 7.31625 12.9362 7.31625C9.3825 7.31625 7.29625 9.98126 7.29625 12.735C7.29625 13.8075 7.71 14.9588 8.22625 15.585C8.3275 15.7088 8.3425 15.8163 8.3125 15.9425C8.2175 16.3363 8.00625 17.185 7.96625 17.3587C7.91125 17.5875 7.785 17.6363 7.5475 17.5263C5.98875 16.8 5.01375 14.52 5.01375 12.6875C5.01375 8.74875 7.875 5.13125 13.265 5.13125C17.5975 5.13125 20.9638 8.21751 20.9638 12.3438C20.9638 16.6488 18.25 20.11 14.4837 20.11C13.2175 20.11 12.0288 19.4538 11.6213 18.6775C11.6213 18.6775 10.995 21.0613 10.8425 21.645C10.5613 22.73 9.8 24.09 9.29125 24.92C10.46 25.2813 11.7012 25.4763 12.9887 25.4763C19.885 25.4763 25.4763 19.885 25.4763 12.9887C25.4763 6.0925 19.8837 0.5 12.9875 0.5Z"/>
</svg>
