<svg width="26" height="30" viewBox="0 0 26 30" xmlns="http://www.w3.org/2000/svg">
<path d="M6.83666 19.3011C6.83666 18.8029 6.49096 18.5057 5.88099 18.5057C5.63192 18.5057 5.46323 18.5303 5.375 18.5538V20.1523C5.47947 20.1759 5.6079 20.1837 5.78492 20.1837C6.43508 20.1837 6.83666 19.8552 6.83666 19.3011Z"/>
<path d="M10.6127 18.5225C10.3395 18.5225 10.163 18.546 10.0586 18.5705V22.1107C10.1631 22.1352 10.3318 22.1352 10.4843 22.1352C11.5924 22.1431 12.3151 21.5331 12.3151 20.2406C12.3229 19.1167 11.6644 18.5225 10.6127 18.5225Z"/>
<path d="M17.6283 0H5.57905C3.81877 0 2.3861 1.43367 2.3861 3.19295V14.9999H2.07424C1.36378 14.9999 0.787598 15.5756 0.787598 16.2866V24.0896C0.787598 24.8006 1.36372 25.3762 2.07424 25.3762H2.3861V26.807C2.3861 28.5682 3.81877 29.9999 5.57905 29.9999H22.0197C23.7788 29.9999 25.2117 28.5681 25.2117 26.807V7.55687L17.6283 0ZM4.16299 17.6948C4.54006 17.6311 5.07007 17.583 5.8168 17.583C6.57144 17.583 7.10929 17.7271 7.47068 18.0164C7.81589 18.2891 8.04885 18.7391 8.04885 19.2688C8.04885 19.7983 7.87232 20.2485 7.55113 20.5534C7.13337 20.9467 6.51556 21.1232 5.79284 21.1232C5.632 21.1232 5.48783 21.1152 5.37508 21.0996V23.0345H4.16299V17.6948ZM22.0197 28.0445H5.57905C4.89746 28.0445 4.34244 27.4895 4.34244 26.807V25.3762H19.6685C20.3791 25.3762 20.9552 24.8006 20.9552 24.0896V16.2866C20.9552 15.5756 20.3791 14.9999 19.6685 14.9999H4.34244V3.19295C4.34244 2.51236 4.89752 1.95734 5.57905 1.95734L16.8967 1.94551V6.12892C16.8967 7.35085 17.8882 8.34324 19.111 8.34324L23.2091 8.33148L23.2552 26.8069C23.2552 27.4895 22.7012 28.0445 22.0197 28.0445ZM8.83043 23.01V17.6948C9.27999 17.6232 9.86594 17.583 10.4843 17.583C11.512 17.583 12.1784 17.7674 12.7005 18.1606C13.2625 18.5784 13.6155 19.2443 13.6155 20.2003C13.6155 21.2359 13.2384 21.9508 12.7162 22.392C12.1464 22.8657 11.2791 23.0903 10.2195 23.0903C9.58494 23.0903 9.13538 23.0501 8.83043 23.01ZM17.593 19.8631V20.8584H15.6498V23.0345H14.4216V17.6232H17.7293V18.6264H15.6498V19.8631H17.593Z"/>
</svg>
