<svg width="20" height="20" viewBox="0 0 20 20" xmlns="http://www.w3.org/2000/svg">
<path d="M15.7073 10.293C15.3163 9.90201 14.6843 9.90201 14.2933 10.293L12.6993 11.887C11.9603 11.667 10.5813 11.167 9.70733 10.293C8.83333 9.41901 8.33333 8.04001 8.11333 7.30101L9.70733 5.70701C10.0983 5.31601 10.0983 4.68401 9.70733 4.29301L5.70733 0.293006C5.31633 -0.0979941 4.68433 -0.0979941 4.29333 0.293006L1.58133 3.00501C1.20133 3.38501 0.987334 3.90701 0.995334 4.44001C1.01833 5.86401 1.39533 10.81 5.29333 14.708C9.19133 18.606 14.1373 18.982 15.5623 19.006C15.5673 19.006 15.5853 19.006 15.5903 19.006C16.1183 19.006 16.6173 18.798 16.9953 18.42L19.7073 15.708C20.0983 15.317 20.0983 14.685 19.7073 14.294L15.7073 10.293ZM15.5803 17.005C14.3323 16.984 10.0623 16.649 6.70733 13.293C3.34133 9.92701 3.01533 5.64201 2.99533 4.41901L5.00033 2.41401L7.58633 5.00001L6.29333 6.29301C6.05433 6.53101 5.95233 6.87501 6.02133 7.20501C6.04533 7.32001 6.63233 10.047 8.29233 11.707C9.95233 13.367 12.6793 13.954 12.7943 13.978C13.1273 14.049 13.4683 13.946 13.7063 13.707L15.0003 12.414L17.5863 15L15.5803 17.005Z"/>
</svg>
