<svg width="20" height="16" viewBox="0 0 20 16" xmlns="http://www.w3.org/2000/svg">
<path d="M15.868 0.504C15.69 0.192 15.358 0 15 0H1C0.644004 0 0.314004 0.189 0.135004 0.498C-0.0439958 0.807 -0.0449958 1.186 0.132004 1.496L3.849 8L0.132004 14.504C-0.0449958 14.814 -0.0439958 15.193 0.135004 15.502C0.314004 15.811 0.644004 16 1 16H15C15.358 16 15.69 15.808 15.868 15.496L19.868 8.496C20.044 8.188 20.044 7.811 19.868 7.504L15.868 0.504ZM14.42 14H2.724L5.869 8.496C6.045 8.188 6.045 7.811 5.869 7.504L2.724 2H14.42L17.849 8L14.42 14Z"/>
</svg>
