<svg width="19" height="19" viewBox="0 0 19 19" xmlns="http://www.w3.org/2000/svg">
<path d="M8 16C9.846 16 11.543 15.365 12.897 14.312L17.293 18.708L18.707 17.294L14.311 12.898C15.365 11.543 16 9.846 16 8C16 3.589 12.411 0 8 0C3.589 0 0 3.589 0 8C0 12.411 3.589 16 8 16ZM8 2C11.309 2 14 4.691 14 8C14 11.309 11.309 14 8 14C4.691 14 2 11.309 2 8C2 4.691 4.691 2 8 2Z"/>
<path d="M9.41195 6.58599C9.79095 6.96599 9.99995 7.46799 9.99995 7.99999H12C12 6.93499 11.584 5.93099 10.826 5.17199C9.31195 3.65999 6.68695 3.65999 5.17395 5.17199L6.58595 6.58799C7.34595 5.82999 8.65595 5.832 9.41195 6.58599Z"/>
</svg>
