<svg width="11" height="11" viewBox="0 0 11 11" xmlns="http://www.w3.org/2000/svg">
<path d="M2.98622 6.56471L2.3033 9.52188C2.26114 9.70475 2.33447 9.89496 2.48939 10.0018C2.56776 10.0558 2.65851 10.0833 2.74972 10.0833C2.83818 10.0833 2.92709 10.0577 3.00409 10.0063L5.49972 8.34259L7.99534 10.0063C8.15484 10.1127 8.3643 10.1085 8.52014 9.99534C8.67505 9.88213 8.74334 9.68367 8.69064 9.49942L7.85234 6.56609L9.93134 4.69517C10.0675 4.57234 10.1174 4.38076 10.0588 4.20751C9.99964 4.03426 9.84335 3.91234 9.66093 3.89767L7.04797 3.68959L5.91726 1.18663C5.84347 1.02209 5.67984 0.916672 5.49972 0.916672C5.31959 0.916672 5.15597 1.02209 5.08218 1.18663L3.95147 3.68959L1.33851 3.89721C1.15884 3.91142 1.00439 4.02921 0.943886 4.19834C0.882469 4.36746 0.926469 4.55676 1.0548 4.68234L2.98622 6.56471ZM4.29384 4.58196C4.46022 4.56867 4.60689 4.46601 4.67518 4.31338L5.49972 2.48875L6.32426 4.31338C6.39255 4.46601 6.53922 4.56867 6.70559 4.58196L8.5261 4.72634L7.02689 6.07567C6.89672 6.19301 6.84493 6.37359 6.89259 6.54226L7.46689 8.55205L5.75455 7.41034C5.60055 7.30721 5.40026 7.30721 5.24626 7.41034L3.45693 8.60338L3.93818 6.5198C3.97393 6.36396 3.92626 6.20034 3.81168 6.08896L2.41926 4.73138L4.29384 4.58196Z"/>
</svg>
