<svg width="56" height="19" viewBox="0 0 56 19" fill="none" xmlns="http://www.w3.org/2000/svg">
<g clip-path="url(#clip0)">
<path d="M11.4012 9.83222C6.77366 9.83222 7.57845 1.66089 1.67665 1.66089" stroke="black" stroke-width="3" stroke-miterlimit="10" stroke-linecap="round" stroke-linejoin="round"/>
<path d="M30.9174 9.83222C26.2898 9.83222 27.0946 1.66089 21.1928 1.66089" stroke="black" stroke-width="3" stroke-miterlimit="10" stroke-linecap="round" stroke-linejoin="round"/>
<path d="M11.4012 9.83222C16.0287 9.83222 15.224 1.66089 21.1258 1.66089" stroke="black" stroke-width="3" stroke-miterlimit="10" stroke-linecap="round" stroke-linejoin="round"/>
<path d="M30.9174 9.83222C35.5449 9.83222 34.7401 1.66089 40.6419 1.66089" stroke="black" stroke-width="3" stroke-miterlimit="10" stroke-linecap="round" stroke-linejoin="round"/>
<path d="M26.7593 18.6679C22.1317 18.6679 22.9365 10.4966 17.0347 10.4966" stroke="black" stroke-miterlimit="10"/>
<path d="M46.2084 18.6679C41.5808 18.6679 42.3856 10.4966 36.4838 10.4966" stroke="black" stroke-miterlimit="10"/>
<path d="M26.7593 18.6679C31.3868 18.6679 30.582 10.4966 36.4838 10.4966" stroke="black" stroke-miterlimit="10"/>
<path d="M46.2084 18.6679C50.8359 18.6679 50.0311 10.4966 55.9329 10.4966" stroke="black" stroke-miterlimit="10"/>
</g>
<defs>
<clipPath id="clip0">
<rect width="56" height="19" fill="white"/>
</clipPath>
</defs>
</svg>
