<svg width="56" height="19" viewBox="0 0 56 19" fill="none" xmlns="http://www.w3.org/2000/svg">
<g clip-path="url(#clip0)">
<path d="M11.4012 9.83222C6.77364 9.83222 7.57843 1.66089 1.67664 1.66089" stroke="white" stroke-width="3" stroke-miterlimit="10" stroke-linecap="round" stroke-linejoin="round"/>
<path d="M30.9174 9.83222C26.2898 9.83222 27.0946 1.66089 21.1928 1.66089" stroke="white" stroke-width="3" stroke-miterlimit="10" stroke-linecap="round" stroke-linejoin="round"/>
<path d="M11.4012 9.83222C16.0287 9.83222 15.2239 1.66089 21.1257 1.66089" stroke="white" stroke-width="3" stroke-miterlimit="10" stroke-linecap="round" stroke-linejoin="round"/>
<path d="M30.9174 9.83222C35.5449 9.83222 34.7401 1.66089 40.6419 1.66089" stroke="white" stroke-width="3" stroke-miterlimit="10" stroke-linecap="round" stroke-linejoin="round"/>
<path d="M26.7593 18.6678C22.1317 18.6678 22.9365 10.4965 17.0347 10.4965" stroke="white" stroke-miterlimit="10"/>
<path d="M46.2084 18.6678C41.5808 18.6678 42.3856 10.4965 36.4838 10.4965" stroke="white" stroke-miterlimit="10"/>
<path d="M26.7593 18.6678C31.3868 18.6678 30.582 10.4965 36.4838 10.4965" stroke="white" stroke-miterlimit="10"/>
<path d="M46.2084 18.6678C50.8359 18.6678 50.0311 10.4965 55.9329 10.4965" stroke="white" stroke-miterlimit="10"/>
</g>
<defs>
<clipPath id="clip0">
<rect width="56" height="19" fill="white"/>
</clipPath>
</defs>
</svg>
