<svg width="1698" height="1" viewBox="0 0 1698 1" fill="none" xmlns="http://www.w3.org/2000/svg">
<line x1="486" y1="0.5" x2="496" y2="0.5" stroke="#C0BCBD"/>
<line x1="641" y1="0.5" x2="651" y2="0.5" stroke="#C0BCBD"/>
<line x1="796" y1="0.5" x2="806" y2="0.5" stroke="#C0BCBD"/>
<line x1="951" y1="0.5" x2="961" y2="0.5" stroke="#C0BCBD"/>
<line x1="1107" y1="0.5" x2="1116" y2="0.5" stroke="#C0BCBD"/>
<line x1="1262" y1="0.5" x2="1272" y2="0.5" stroke="#C0BCBD"/>
<line x1="1552" y1="0.5" x2="1562" y2="0.5" stroke="#C0BCBD"/>
<line x1="564" y1="0.5" x2="573" y2="0.5" stroke="#C0BCBD"/>
<line x1="719" y1="0.5" x2="729" y2="0.5" stroke="#C0BCBD"/>
<line x1="874" y1="0.5" x2="883" y2="0.5" stroke="#C0BCBD"/>
<line x1="1029" y1="0.5" x2="1039" y2="0.5" stroke="#C0BCBD"/>
<line x1="1184" y1="0.5" x2="1194" y2="0.5" stroke="#C0BCBD"/>
<line x1="1474" y1="0.5" x2="1484" y2="0.5" stroke="#C0BCBD"/>
<line x1="1340" y1="0.5" x2="1349" y2="0.5" stroke="#C0BCBD"/>
<line x1="1630" y1="0.5" x2="1639" y2="0.5" stroke="#C0BCBD"/>
<line x1="100" y1="0.5" x2="109" y2="0.5" stroke="#C0BCBD"/>
<line x1="505" y1="0.5" x2="515" y2="0.5" stroke="#C0BCBD"/>
<line x1="661" y1="0.5" x2="671" y2="0.5" stroke="#C0BCBD"/>
<line x1="815" y1="0.5" x2="825" y2="0.5" stroke="#C0BCBD"/>
<line x1="971" y1="0.5" x2="980" y2="0.5" stroke="#C0BCBD"/>
<line x1="1126" y1="0.5" x2="1136" y2="0.5" stroke="#C0BCBD"/>
<line x1="1281" y1="0.5" x2="1291" y2="0.5" stroke="#C0BCBD"/>
<line x1="1571" y1="0.5" x2="1581" y2="0.5" stroke="#C0BCBD"/>
<line x1="40" y1="0.5" x2="50" y2="0.5" stroke="#C0BCBD"/>
<line x1="583" y1="0.5" x2="593" y2="0.5" stroke="#C0BCBD"/>
<line x1="739" y1="0.5" x2="748" y2="0.5" stroke="#C0BCBD"/>
<line x1="893" y1="0.5" x2="903" y2="0.5" stroke="#C0BCBD"/>
<line x1="1048" y1="0.5" x2="1058" y2="0.5" stroke="#C0BCBD"/>
<line x1="1204" y1="0.5" x2="1213" y2="0.5" stroke="#C0BCBD"/>
<line x1="1494" y1="0.5" x2="1503" y2="0.5" stroke="#C0BCBD"/>
<line x1="1359" y1="0.5" x2="1369" y2="0.5" stroke="#C0BCBD"/>
<line x1="1649" y1="0.5" x2="1659" y2="0.5" stroke="#C0BCBD"/>
<line x1="119" y1="0.5" x2="129" y2="0.5" stroke="#C0BCBD"/>
<line x1="1416" y1="0.5" x2="1426" y2="0.5" stroke="#C0BCBD"/>
<line x1="178" y1="0.5" x2="188" y2="0.5" stroke="#C0BCBD"/>
<line x1="525" y1="0.5" x2="535" y2="0.5" stroke="#C0BCBD"/>
<line x1="680" y1="0.5" x2="690" y2="0.5" stroke="#C0BCBD"/>
<line x1="835" y1="0.5" x2="844" y2="0.5" stroke="#C0BCBD"/>
<line x1="990" y1="0.5" x2="1000" y2="0.5" stroke="#C0BCBD"/>
<line x1="1145" y1="0.5" x2="1155" y2="0.5" stroke="#C0BCBD"/>
<line x1="1301" y1="0.5" x2="1311" y2="0.5" stroke="#C0BCBD"/>
<line x1="1591" y1="0.5" x2="1601" y2="0.5" stroke="#C0BCBD"/>
<line x1="60" y1="0.5" x2="70" y2="0.5" stroke="#C0BCBD"/>
<line y1="0.5" x2="10" y2="0.5" stroke="#C0BCBD"/>
<line x1="603" y1="0.5" x2="612" y2="0.5" stroke="#C0BCBD"/>
<line x1="758" y1="0.5" x2="768" y2="0.5" stroke="#C0BCBD"/>
<line x1="912" y1="0.5" x2="922" y2="0.5" stroke="#C0BCBD"/>
<line x1="1068" y1="0.5" x2="1077" y2="0.5" stroke="#C0BCBD"/>
<line x1="1223" y1="0.5" x2="1233" y2="0.5" stroke="#C0BCBD"/>
<line x1="1513" y1="0.5" x2="1523" y2="0.5" stroke="#C0BCBD"/>
<line x1="1379" y1="0.5" x2="1388" y2="0.5" stroke="#C0BCBD"/>
<line x1="1669" y1="0.5" x2="1678" y2="0.5" stroke="#C0BCBD"/>
<line x1="139" y1="0.5" x2="148" y2="0.5" stroke="#C0BCBD"/>
<line x1="1436" y1="0.5" x2="1446" y2="0.5" stroke="#C0BCBD"/>
<line x1="544" y1="0.5" x2="554" y2="0.5" stroke="#C0BCBD"/>
<line x1="700" y1="0.5" x2="709" y2="0.5" stroke="#C0BCBD"/>
<line x1="854" y1="0.5" x2="864" y2="0.5" stroke="#C0BCBD"/>
<line x1="1009" y1="0.5" x2="1019" y2="0.5" stroke="#C0BCBD"/>
<line x1="1165" y1="0.5" x2="1175" y2="0.5" stroke="#C0BCBD"/>
<line x1="1320" y1="0.5" x2="1330" y2="0.5" stroke="#C0BCBD"/>
<line x1="1610" y1="0.5" x2="1620" y2="0.5" stroke="#C0BCBD"/>
<line x1="80" y1="0.5" x2="90" y2="0.5" stroke="#C0BCBD"/>
<line x1="20" y1="0.5" x2="30" y2="0.5" stroke="#C0BCBD"/>
<line x1="622" y1="0.5" x2="632" y2="0.5" stroke="#C0BCBD"/>
<line x1="777" y1="0.5" x2="787" y2="0.5" stroke="#C0BCBD"/>
<line x1="932" y1="0.5" x2="942" y2="0.5" stroke="#C0BCBD"/>
<line x1="1087" y1="0.5" x2="1097" y2="0.5" stroke="#C0BCBD"/>
<line x1="1243" y1="0.5" x2="1252" y2="0.5" stroke="#C0BCBD"/>
<line x1="1533" y1="0.5" x2="1542" y2="0.5" stroke="#C0BCBD"/>
<line x1="1398" y1="0.5" x2="1408" y2="0.5" stroke="#C0BCBD"/>
<line x1="1688" y1="0.5" x2="1698" y2="0.5" stroke="#C0BCBD"/>
<line x1="158" y1="0.5" x2="168" y2="0.5" stroke="#C0BCBD"/>
<line x1="1455" y1="0.5" x2="1465" y2="0.5" stroke="#C0BCBD"/>
</svg>
