<svg width="203" height="67" viewBox="0 0 203 67" fill="none" xmlns="http://www.w3.org/2000/svg">
<path d="M38.008 32.5447C20.8732 32.5447 23.8531 2 2 2" stroke="black" stroke-width="3" stroke-miterlimit="10" stroke-linecap="round" stroke-linejoin="round"/>
<path d="M110.272 32.5447C93.1375 32.5447 96.1175 2 74.2643 2" stroke="black" stroke-width="3" stroke-miterlimit="10" stroke-linecap="round" stroke-linejoin="round"/>
<path d="M38.0081 32.5447C55.1429 32.5447 52.1629 2 74.0161 2" stroke="black" stroke-width="3" stroke-miterlimit="10" stroke-linecap="round" stroke-linejoin="round"/>
<path d="M110.272 32.5447C127.407 32.5447 124.427 2 146.28 2" stroke="black" stroke-width="3" stroke-miterlimit="10" stroke-linecap="round" stroke-linejoin="round"/>
<path d="M94.876 65.8212C77.7411 65.8212 80.7211 35.2764 58.8679 35.2764" stroke="black" stroke-miterlimit="10"/>
<path d="M166.892 65.8212C149.757 65.8212 152.737 35.2764 130.884 35.2764" stroke="black" stroke-miterlimit="10"/>
<path d="M94.876 65.8212C112.011 65.8212 109.031 35.2764 130.884 35.2764" stroke="black" stroke-miterlimit="10"/>
<path d="M166.892 65.8212C184.027 65.8212 181.047 35.2764 202.9 35.2764" stroke="black" stroke-miterlimit="10"/>
</svg>
