<svg width="165" height="4" viewBox="0 0 165 4" fill="none" xmlns="http://www.w3.org/2000/svg">
<path d="M5.59234 3.20368C3.40702 3.20368 3.78707 1 1 1" stroke="#725653" stroke-miterlimit="10" stroke-linecap="round" stroke-linejoin="round"/>
<path d="M14.8087 3.20368C12.6234 3.20368 13.0034 1 10.2163 1" stroke="#725653" stroke-miterlimit="10" stroke-linecap="round" stroke-linejoin="round"/>
<path d="M5.59233 3.20368C7.77765 3.20368 7.39759 1 10.1847 1" stroke="#725653" stroke-miterlimit="10" stroke-linecap="round" stroke-linejoin="round"/>
<path d="M14.8087 3.20368C16.994 3.20368 16.6139 1 19.401 1" stroke="#725653" stroke-miterlimit="10" stroke-linecap="round" stroke-linejoin="round"/>
<path d="M77.5368 3.20368C75.3515 3.20368 75.7316 1 72.9445 1" stroke="#725653" stroke-miterlimit="10" stroke-linecap="round" stroke-linejoin="round"/>
<path d="M86.7532 3.20368C84.5678 3.20368 84.9479 1 82.1608 1" stroke="#725653" stroke-miterlimit="10" stroke-linecap="round" stroke-linejoin="round"/>
<path d="M77.5368 3.20368C79.7222 3.20368 79.3421 1 82.1292 1" stroke="#725653" stroke-miterlimit="10" stroke-linecap="round" stroke-linejoin="round"/>
<path d="M86.7532 3.20368C88.9385 3.20368 88.5584 1 91.3455 1" stroke="#725653" stroke-miterlimit="10" stroke-linecap="round" stroke-linejoin="round"/>
<path d="M41.5645 3.20368C39.3792 3.20368 39.7593 1 36.9722 1" stroke="#725653" stroke-miterlimit="10" stroke-linecap="round" stroke-linejoin="round"/>
<path d="M50.7809 3.20368C48.5956 3.20368 48.9756 1 46.1886 1" stroke="#725653" stroke-miterlimit="10" stroke-linecap="round" stroke-linejoin="round"/>
<path d="M41.5646 3.20368C43.7499 3.20368 43.3698 1 46.1569 1" stroke="#725653" stroke-miterlimit="10" stroke-linecap="round" stroke-linejoin="round"/>
<path d="M50.7809 3.20368C52.9662 3.20368 52.5862 1 55.3732 1" stroke="#725653" stroke-miterlimit="10" stroke-linecap="round" stroke-linejoin="round"/>
<path d="M113.509 3.20368C111.324 3.20368 111.704 1 108.917 1" stroke="#725653" stroke-miterlimit="10" stroke-linecap="round" stroke-linejoin="round"/>
<path d="M122.725 3.20368C120.54 3.20368 120.92 1 118.133 1" stroke="#725653" stroke-miterlimit="10" stroke-linecap="round" stroke-linejoin="round"/>
<path d="M113.509 3.20368C115.694 3.20368 115.314 1 118.101 1" stroke="#725653" stroke-miterlimit="10" stroke-linecap="round" stroke-linejoin="round"/>
<path d="M122.725 3.20368C124.911 3.20368 124.531 1 127.318 1" stroke="#725653" stroke-miterlimit="10" stroke-linecap="round" stroke-linejoin="round"/>
<path d="M132.191 3.20368C130.006 3.20368 130.386 1 127.599 1" stroke="#725653" stroke-miterlimit="10" stroke-linecap="round" stroke-linejoin="round"/>
<path d="M141.408 3.20368C139.222 3.20368 139.602 1 136.815 1" stroke="#725653" stroke-miterlimit="10" stroke-linecap="round" stroke-linejoin="round"/>
<path d="M132.191 3.20368C134.377 3.20368 133.997 1 136.784 1" stroke="#725653" stroke-miterlimit="10" stroke-linecap="round" stroke-linejoin="round"/>
<path d="M141.408 3.20368C143.593 3.20368 143.213 1 146 1" stroke="#725653" stroke-miterlimit="10" stroke-linecap="round" stroke-linejoin="round"/>
<path d="M150.592 3.20368C148.407 3.20368 148.787 1 146 1" stroke="#725653" stroke-miterlimit="10" stroke-linecap="round" stroke-linejoin="round"/>
<path d="M159.809 3.20368C157.623 3.20368 158.003 1 155.216 1" stroke="#725653" stroke-miterlimit="10" stroke-linecap="round" stroke-linejoin="round"/>
<path d="M150.592 3.20368C152.778 3.20368 152.398 1 155.185 1" stroke="#725653" stroke-miterlimit="10" stroke-linecap="round" stroke-linejoin="round"/>
<path d="M159.809 3.20368C161.994 3.20368 161.614 1 164.401 1" stroke="#725653" stroke-miterlimit="10" stroke-linecap="round" stroke-linejoin="round"/>
<path d="M23.5785 3.20368C21.3931 3.20368 21.7732 1 18.9861 1" stroke="#725653" stroke-miterlimit="10" stroke-linecap="round" stroke-linejoin="round"/>
<path d="M32.7948 3.20368C30.6095 3.20368 30.9895 1 28.2025 1" stroke="#725653" stroke-miterlimit="10" stroke-linecap="round" stroke-linejoin="round"/>
<path d="M23.5784 3.20368C25.7638 3.20368 25.3837 1 28.1708 1" stroke="#725653" stroke-miterlimit="10" stroke-linecap="round" stroke-linejoin="round"/>
<path d="M32.7948 3.20368C34.9801 3.20368 34.6001 1 37.3871 1" stroke="#725653" stroke-miterlimit="10" stroke-linecap="round" stroke-linejoin="round"/>
<path d="M95.5229 3.20368C93.3376 3.20368 93.7177 1 90.9306 1" stroke="#725653" stroke-miterlimit="10" stroke-linecap="round" stroke-linejoin="round"/>
<path d="M104.739 3.20368C102.554 3.20368 102.934 1 100.147 1" stroke="#725653" stroke-miterlimit="10" stroke-linecap="round" stroke-linejoin="round"/>
<path d="M95.5229 3.20368C97.7083 3.20368 97.3282 1 100.115 1" stroke="#725653" stroke-miterlimit="10" stroke-linecap="round" stroke-linejoin="round"/>
<path d="M104.739 3.20368C106.925 3.20368 106.545 1 109.332 1" stroke="#725653" stroke-miterlimit="10" stroke-linecap="round" stroke-linejoin="round"/>
<path d="M59.5507 3.20368C57.3654 3.20368 57.7454 1 54.9584 1" stroke="#725653" stroke-miterlimit="10" stroke-linecap="round" stroke-linejoin="round"/>
<path d="M68.767 3.20368C66.5817 3.20368 66.9618 1 64.1747 1" stroke="#725653" stroke-miterlimit="10" stroke-linecap="round" stroke-linejoin="round"/>
<path d="M59.5507 3.20368C61.736 3.20368 61.356 1 64.1431 1" stroke="#725653" stroke-miterlimit="10" stroke-linecap="round" stroke-linejoin="round"/>
<path d="M68.7671 3.20368C70.9524 3.20368 70.5723 1 73.3594 1" stroke="#725653" stroke-miterlimit="10" stroke-linecap="round" stroke-linejoin="round"/>
</svg>
