<svg width="481" height="1260" viewBox="0 0 481 1260" fill="none" xmlns="http://www.w3.org/2000/svg">
<path d="M-2.62695 907.846C21.8229 920.118 46.7448 932.248 72.1387 944.237C87.7148 951.695 103.244 959.153 118.726 966.61C160.545 978.694 202.884 987.379 245.742 992.665C288.6 997.951 325.558 999.792 356.616 998.188C369.832 997.527 383.379 996.252 397.256 994.364C411.133 992.382 424.538 989.078 437.471 984.452C450.404 979.732 462.015 972.935 472.305 964.062C473.91 962.74 475.514 962.41 477.119 963.07C478.818 963.637 479.951 964.722 480.518 966.327C481.178 967.932 480.754 969.584 479.243 971.283C475.09 975.154 470.653 978.599 465.933 981.62C443.843 994.459 415.994 1002.67 382.388 1006.26C348.875 1009.85 312.814 1009.85 274.204 1006.26C235.688 1002.58 197.881 996.394 160.781 987.709C180.7 997.715 200.477 1008.01 220.112 1018.58C239.748 1029.15 258.958 1040.38 277.744 1052.28C278.971 1053.13 280.246 1054.03 281.567 1054.97C288.175 1059.22 295.68 1064.55 304.082 1070.97C312.484 1077.39 319.469 1084.33 325.039 1091.79C330.609 1099.24 332.544 1106.7 330.845 1114.16C329.429 1117.75 326.172 1120.11 321.074 1121.24C316.071 1122.37 310.454 1122.89 304.224 1122.8C298.088 1122.61 292.565 1122.23 287.656 1121.66C285.296 1121.48 283.314 1121.33 281.709 1121.24C260.658 1118.97 239.748 1116.14 218.979 1112.74C205.763 1110.76 192.5 1108.64 179.189 1106.37C161.82 1103.35 144.45 1100.61 127.08 1098.16C109.616 1095.61 92.0573 1093.86 74.4043 1092.92C73.2715 1092.82 72.0443 1092.73 70.7227 1092.64C68.5514 1092.45 66.4746 1092.35 64.4922 1092.35C62.5098 1092.35 61.0938 1092.68 60.2441 1093.34C57.1289 1100.9 58.3561 1108.78 63.9258 1116.99C69.4954 1125.11 77.7555 1133.13 88.7061 1141.06C99.5622 1148.9 111.315 1156.26 123.965 1163.15C136.615 1169.95 148.462 1175.9 159.507 1181C170.457 1186 178.859 1189.73 184.712 1192.18C238.426 1214.74 293.273 1234.28 349.253 1250.8C351.047 1251.47 352.085 1252.65 352.368 1254.34C352.746 1255.95 352.415 1257.22 351.377 1258.17C350.433 1259.02 348.97 1259.35 346.987 1259.16C346.987 1259.16 345.052 1258.64 341.182 1257.6C337.311 1256.56 332.922 1255.1 328.013 1253.21C323.104 1251.23 313.428 1247.93 298.984 1243.3C259.619 1229.14 220.773 1213.75 182.446 1197.14C164.038 1189.11 145.866 1180.48 127.93 1171.22C109.899 1161.97 92.7181 1151.35 76.3867 1139.36C71.1947 1135.59 66.1442 1131.15 61.2354 1126.05C56.3265 1120.86 52.6921 1115.2 50.332 1109.06C47.972 1102.93 48.0664 1096.41 50.6152 1089.52C50.6152 1089.52 50.8512 1089.19 51.3232 1088.53C51.7008 1087.87 52.5033 1087.02 53.7305 1085.98C54.9577 1084.94 56.7985 1083.9 59.2529 1082.87C61.7074 1081.83 64.917 1080.84 68.8818 1079.89C76.6227 1078.66 84.3636 1078.66 92.1045 1079.89C93.4261 1080.08 94.7477 1080.22 96.0693 1080.32C121.652 1083.34 146.999 1087.25 172.109 1092.07C174.658 1092.54 177.16 1093.01 179.614 1093.49C186.789 1094.81 194.246 1096.18 201.987 1097.59C229.741 1102.97 256.693 1107.46 282.842 1111.04C293.037 1112.55 303.232 1113.22 313.428 1113.03C315.033 1112.93 316.637 1112.74 318.242 1112.46C319.847 1112.18 321.216 1111.7 322.349 1111.04C322.726 1103.02 317.298 1093.77 306.064 1083.29C294.925 1072.72 279.821 1061.53 260.752 1049.73C241.683 1037.84 220.537 1025.89 197.314 1013.91C173.997 1001.82 150.492 990.163 126.797 978.93C81.7676 966.186 45.4704 951.695 17.9053 935.458C8.55957 930.077 -0.172526 923.563 -8.29102 915.917C-9.32943 914.879 -9.84863 913.699 -9.84863 912.377C-9.84863 911.055 -9.37663 909.875 -8.43262 908.837C-6.639 907.232 -4.70378 906.902 -2.62695 907.846ZM214.731 823.026C214.071 822.649 213.787 822.13 213.882 821.469C213.976 820.808 214.307 820.289 214.873 819.911C215.345 819.534 215.911 819.534 216.572 819.911C220.443 822.649 223.888 825.811 226.909 829.398C229.836 832.986 232.62 836.715 235.264 840.585C235.736 841.246 236.16 841.859 236.538 842.426C242.957 851.771 247.913 860.787 251.406 869.472C254.805 878.157 255.465 885.709 253.389 892.128C251.217 898.453 244.893 902.89 234.414 905.438C243.665 911.669 252.586 918.371 261.177 925.546C264.953 929.322 266.038 933.192 264.434 937.157C262.734 941.216 259.147 942.821 253.672 941.972C236.491 938.101 221.576 930.03 208.926 917.758C204.867 913.793 201.61 908.931 199.155 903.173C198.306 900.907 198.589 899.066 200.005 897.65C201.421 896.14 203.167 895.432 205.244 895.526C207.227 895.621 208.69 896.801 209.634 899.066C213.221 906.146 218.319 912.094 224.927 916.908C231.44 921.628 238.521 925.31 246.167 927.953C236.16 920.212 225.776 912.991 215.015 906.288C213.41 905.25 212.56 903.881 212.466 902.182C212.371 900.388 212.891 898.878 214.023 897.65C215.156 896.329 216.667 895.715 218.555 895.81C224.313 897.698 230.26 898.217 236.396 897.367C242.438 896.423 246.686 892.836 249.141 886.605C249.046 877.26 246.403 867.82 241.211 858.285C236.019 848.751 230.544 840.255 224.785 832.797C221.953 828.926 218.602 825.67 214.731 823.026ZM216.006 732.543C215.534 732.071 215.392 731.599 215.581 731.127C215.77 730.561 216.1 730.183 216.572 729.994C217.044 729.805 217.563 729.9 218.13 730.277C225.588 738.018 233.753 747.694 242.627 759.306C251.501 770.917 259.053 783.095 265.283 795.839C271.514 808.489 274.393 820.242 273.921 831.098C272.41 838.555 268.493 842.567 262.168 843.134C255.749 843.795 248.48 842.331 240.361 838.744C232.243 835.157 224.785 830.814 217.988 825.717C211.097 820.619 206.377 816.135 203.828 812.265C201.94 809.716 200.618 806.789 199.863 803.485C199.108 800.087 199.674 796.877 201.563 793.856C202.979 791.968 204.678 791.166 206.66 791.449C208.548 791.732 210.059 792.724 211.191 794.423C212.23 796.028 212.23 797.868 211.191 799.945C212.324 804.571 215.345 809.102 220.254 813.539C225.163 817.882 230.638 821.752 236.68 825.15C242.721 828.549 247.913 831.05 252.256 832.655C253.2 832.938 254.191 833.222 255.229 833.505C258.345 834.638 261.413 835.251 264.434 835.346C267.36 835.44 269.106 833.788 269.673 830.39C270.334 820.289 268.587 810.565 264.434 801.22C260.186 791.874 255.371 783 249.99 774.599C249.424 773.749 248.905 772.947 248.433 772.191C241.447 761.335 233.659 751.14 225.068 741.605C222.236 738.396 219.215 735.375 216.006 732.543ZM214.448 588.959C213.976 588.393 213.882 587.873 214.165 587.401C214.354 586.835 214.731 586.457 215.298 586.269C215.77 586.08 216.242 586.221 216.714 586.693C228.231 599.626 235.216 614.683 237.671 631.864C237.954 634.035 238.049 636.254 237.954 638.52C237.86 640.785 237.152 642.862 235.83 644.75C232.998 648.243 229.647 651.028 225.776 653.104C225.21 653.482 224.549 653.907 223.794 654.379C222.189 655.323 220.632 656.409 219.121 657.636C217.611 658.769 216.714 660.043 216.431 661.459C218.413 664.669 221.151 667.406 224.644 669.672C225.493 670.238 226.296 670.805 227.051 671.371C229.033 672.882 231.063 674.345 233.14 675.761C236.821 678.215 240.456 680.858 244.043 683.69C247.441 686.145 249.093 688.646 248.999 691.195C248.81 693.744 246.592 695.727 242.344 697.143C232.337 699.314 222.236 700.163 212.041 699.691C221.576 706.96 231.252 714.04 241.069 720.932C245.317 724.047 249.565 727.115 253.813 730.136C254.569 730.608 255.277 731.127 255.938 731.693C259.43 734.148 262.876 736.697 266.274 739.34C266.558 739.529 266.794 739.717 266.982 739.906C267.832 740.473 268.54 741.275 269.106 742.313C269.484 743.257 269.39 744.107 268.823 744.862C268.257 745.618 267.454 745.948 266.416 745.854C263.773 745.476 261.082 745.098 258.345 744.721C255.513 744.343 252.681 743.918 249.849 743.446C245.317 742.597 240.786 741.605 236.255 740.473C235.122 740.095 233.942 739.765 232.715 739.481C231.771 739.293 230.78 739.057 229.741 738.773C224.738 737.452 220.112 736.177 215.864 734.95C213.41 734.101 212.041 732.685 211.758 730.702C211.475 728.72 211.994 726.973 213.315 725.463C214.637 723.952 216.572 723.528 219.121 724.188C226.107 726.549 233.281 729.097 240.645 731.835C241.777 732.213 242.863 732.59 243.901 732.968C246.922 733.912 249.943 735.092 252.964 736.508C253.247 736.602 253.53 736.697 253.813 736.791C252.681 736.13 251.595 735.469 250.557 734.809C236.68 726.218 222.52 717.628 208.076 709.037C207.227 708.565 206.377 708.093 205.527 707.621C204.583 707.055 203.592 706.441 202.554 705.78C198.211 703.231 194.105 700.683 190.234 698.134C188.346 696.623 187.45 694.924 187.544 693.036C187.544 691.148 188.299 689.543 189.81 688.222C191.226 686.9 193.066 686.381 195.332 686.664C199.674 688.363 205.622 689.402 213.174 689.779C220.632 690.157 227.381 689.732 233.423 688.505C231.346 686.522 229.269 684.634 227.192 682.841C223.133 679.442 219.263 675.714 215.581 671.654C212.56 668.445 210.908 665.282 210.625 662.167C210.247 659.052 212.277 656.409 216.714 654.237C217.941 653.576 219.263 652.821 220.679 651.972C223.983 650.367 227.145 648.432 230.166 646.166C233.092 643.9 234.697 641.21 234.98 638.095C235.075 631.675 234.131 625.398 232.148 619.262C230.166 613.031 227.57 607.178 224.36 601.703C221.528 596.983 218.224 592.735 214.448 588.959ZM214.023 497.626C215.156 496.682 216.431 496.824 217.847 498.051C219.263 499.184 220.632 500.552 221.953 502.157C222.897 503.29 223.652 504.092 224.219 504.564C227.428 508.152 231.676 514.099 236.963 522.406C242.249 530.714 247.158 539.823 251.689 549.735C256.221 559.647 258.958 568.71 259.902 576.923C260.846 585.136 258.628 590.894 253.247 594.198C245.317 597.313 237.057 597.974 228.467 596.181C219.782 594.481 212.088 591.083 205.386 585.985C201.799 582.965 199.816 579.33 199.438 575.082C199.061 570.834 201.61 568.191 207.085 567.152C209.823 566.492 212.843 567.294 216.147 569.56C219.357 571.825 222.331 574.657 225.068 578.056C227.806 581.36 229.694 584.239 230.732 586.693C236.68 587.826 241.73 588.157 245.884 587.685C251.925 586.929 254.852 583.342 254.663 576.923C254.474 570.409 252.633 562.857 249.141 554.267C245.553 545.582 241.636 537.51 237.388 530.053C233.14 522.595 229.93 517.45 227.759 514.618C223.983 509.237 219.546 504.47 214.448 500.316C213.976 499.939 213.74 499.514 213.74 499.042C213.646 498.476 213.74 498.004 214.023 497.626ZM210.059 575.932C212.985 580.18 217.799 583.248 224.502 585.136C222.331 582.776 219.924 580.604 217.28 578.622C214.543 576.64 212.135 575.743 210.059 575.932ZM242.91 494.511H243.193C243.099 494.511 243.052 494.558 243.052 494.652C242.957 494.558 242.91 494.511 242.91 494.511ZM214.448 392.558C213.882 391.991 213.693 391.425 213.882 390.858C214.071 390.292 214.448 389.914 215.015 389.726C215.581 389.442 216.147 389.584 216.714 390.15C223.511 397.23 229.316 405.019 234.131 413.515C238.945 422.011 243.005 430.884 246.309 440.136C253.105 459.299 255.371 479.076 253.105 499.467L252.964 499.325C252.964 499.325 252.964 499.372 252.964 499.467C252.964 499.467 252.917 499.467 252.822 499.467C267.266 502.488 281.426 506.122 295.303 510.37C309.274 514.713 322.49 520.849 334.951 528.778C335.612 529.156 336.037 529.722 336.226 530.478C336.414 531.327 336.32 532.082 335.942 532.743C335.47 533.593 334.054 534.065 331.694 534.159C329.334 534.254 326.691 534.112 323.765 533.734C320.838 533.451 318.289 533.168 316.118 532.885C314.985 532.696 314.136 532.554 313.569 532.46C290.441 528.401 268.729 520.424 248.433 508.529C237.576 506.547 226.768 504.376 216.006 502.016C213.646 501.26 212.277 499.892 211.899 497.909C211.522 495.927 211.947 494.18 213.174 492.67C214.401 491.065 216.289 490.499 218.838 490.971C221.104 491.632 223.369 492.292 225.635 492.953C218.838 487.572 213.268 481.625 208.926 475.111C204.489 468.503 203.781 461.99 206.802 455.57C213.032 447.546 218.979 444.337 224.644 445.941C230.308 447.452 235.264 451.464 239.512 457.978C243.665 464.491 246.733 471.099 248.716 477.802C249.282 464.586 247.253 451.417 242.627 438.295C238.001 425.173 231.818 413.373 224.077 402.895C221.151 399.118 217.941 395.673 214.448 392.558ZM319.233 527.221C305.356 521.085 290.913 516.601 275.903 513.769C273.921 513.391 271.938 513.013 269.956 512.636C285.721 519.999 302.147 524.861 319.233 527.221ZM243.052 494.652C243.241 494.841 243.429 494.888 243.618 494.794L243.193 494.511C243.854 493.661 244.515 492.717 245.176 491.679C245.459 488.752 245.081 485.731 244.043 482.616C243.76 481.672 243.524 480.681 243.335 479.643C242.108 475.017 239.889 469.919 236.68 464.35C233.47 458.686 229.741 454.862 225.493 452.88C221.245 450.897 216.855 453.021 212.324 459.252C211.097 462.462 211.427 465.86 213.315 469.447C215.203 472.94 217.705 476.244 220.82 479.359C223.841 482.475 226.484 485.023 228.75 487.006C232.904 490.31 237.199 493.472 241.636 496.493C241.73 496.21 241.872 495.927 242.061 495.644C242.438 495.36 242.769 495.03 243.052 494.652ZM216.006 301.791C215.534 301.319 215.392 300.847 215.581 300.375C215.77 299.809 216.1 299.431 216.572 299.242C217.044 299.053 217.563 299.148 218.13 299.525C225.588 307.266 233.753 316.942 242.627 328.554C251.501 340.165 259.053 352.343 265.283 365.087C271.514 377.737 274.393 389.49 273.921 400.346C272.41 407.803 268.493 411.815 262.168 412.382C255.749 413.043 248.48 411.579 240.361 407.992C232.243 404.405 224.785 400.062 217.988 394.965C211.097 389.867 206.377 385.383 203.828 381.513C201.94 378.964 200.618 376.037 199.863 372.733C199.108 369.335 199.674 366.125 201.563 363.104C202.979 361.216 204.678 360.414 206.66 360.697C208.548 360.98 210.059 361.972 211.191 363.671C212.23 365.276 212.23 367.117 211.191 369.193C212.324 373.819 215.345 378.35 220.254 382.787C225.163 387.13 230.638 391 236.68 394.398C242.721 397.797 247.913 400.299 252.256 401.903C253.2 402.187 254.191 402.47 255.229 402.753C258.345 403.886 261.413 404.499 264.434 404.594C267.36 404.688 269.106 403.036 269.673 399.638C270.334 389.537 268.587 379.813 264.434 370.468C260.186 361.122 255.371 352.248 249.99 343.847C249.424 342.997 248.905 342.195 248.433 341.439C241.447 330.583 233.659 320.388 225.068 310.854C222.236 307.644 219.215 304.623 216.006 301.791ZM214.448 206.776C215.298 205.738 216.855 205.974 219.121 207.484C221.387 208.9 223.841 210.93 226.484 213.573C229.128 216.122 231.582 218.624 233.848 221.078C236.019 223.533 237.482 225.232 238.237 226.176C244.279 233.728 248.999 241.941 252.397 250.814C255.701 259.783 257.637 268.845 258.203 278.002C258.77 287.159 258.392 296.221 257.07 305.189C257.07 305.661 256.882 306.039 256.504 306.322C258.581 307.266 260.705 308.163 262.876 309.013C266.274 309.957 269.673 310.948 273.071 311.986C274.015 312.175 274.723 312.647 275.195 313.402C275.667 314.252 275.856 315.102 275.762 315.951C275.007 317.65 273.685 318.406 271.797 318.217C269.909 318.028 267.926 317.509 265.85 316.659C264.245 316.093 262.829 315.715 261.602 315.526C260.469 315.243 259.336 314.913 258.203 314.535L213.882 301.791C209.445 300.186 206.896 298.534 206.235 296.835C205.575 295.041 205.952 293.531 207.368 292.304C208.69 290.982 210.436 290.746 212.607 291.596L228.608 298.676C223.794 294.9 219.31 290.84 215.156 286.498C211.475 282.533 207.982 278.616 204.678 274.745C203.356 273.235 202.082 271.771 200.854 270.355C199.438 268.751 198.919 267.146 199.297 265.541C199.674 263.842 200.571 262.567 201.987 261.718C203.403 260.868 205.055 260.868 206.943 261.718C215.628 266.721 223.747 272.527 231.299 279.135C238.851 285.743 246.12 292.634 253.105 299.809C255.277 282.722 253.247 266.249 247.017 250.39C240.786 234.53 230.119 221.125 215.015 210.175C214.448 209.703 214.118 209.184 214.023 208.617C213.929 207.956 214.071 207.343 214.448 206.776ZM227.192 285.082C233.612 291.69 240.739 297.354 248.574 302.074C246.214 300.092 243.807 298.062 241.353 295.985C236.821 292.209 232.101 288.575 227.192 285.082ZM214.731 111.337C214.071 110.959 213.787 110.44 213.882 109.779C213.976 109.118 214.307 108.599 214.873 108.222C215.345 107.844 215.911 107.844 216.572 108.222C220.443 110.959 223.888 114.122 226.909 117.709C229.836 121.296 232.62 125.025 235.264 128.896C235.736 129.556 236.16 130.17 236.538 130.736C242.957 140.082 247.913 149.097 251.406 157.782C254.805 166.467 255.465 174.019 253.389 180.438C251.217 186.763 244.893 191.2 234.414 193.749C243.665 199.979 252.586 206.682 261.177 213.856C264.953 217.632 266.038 221.503 264.434 225.468C262.734 229.527 259.147 231.132 253.672 230.282C236.491 226.412 221.576 218.34 208.926 206.068C204.867 202.104 201.61 197.242 199.155 191.483C198.306 189.218 198.589 187.377 200.005 185.961C201.421 184.451 203.167 183.743 205.244 183.837C207.227 183.931 208.69 185.111 209.634 187.377C213.221 194.457 218.319 200.404 224.927 205.219C231.44 209.939 238.521 213.62 246.167 216.264C236.16 208.523 225.776 201.301 215.015 194.599C213.41 193.56 212.56 192.191 212.466 190.492C212.371 188.699 212.891 187.188 214.023 185.961C215.156 184.639 216.667 184.026 218.555 184.12C224.313 186.008 230.26 186.527 236.396 185.678C242.438 184.734 246.686 181.146 249.141 174.916C249.046 165.57 246.403 156.13 241.211 146.596C236.019 137.061 230.544 128.565 224.785 121.107C221.953 117.237 218.602 113.98 214.731 111.337ZM218.413 90.9463C220.018 94.5335 221.056 97.5072 221.528 99.8672C222.095 105.154 220.16 106.994 215.723 105.39C212.513 104.351 209.681 101.991 207.227 98.3096C204.678 94.6279 203.592 91.2295 203.97 88.1143C204.442 85.943 205.055 85.0462 205.811 85.4238L206.235 85.5654L206.802 85.8486C210.767 87.4535 214.637 89.1527 218.413 90.9463ZM226.626 94.2031C236.916 99.9616 244.137 104.587 248.291 108.08C254.144 112.706 256.74 116.34 256.079 118.983C255.513 121.06 254.191 123.137 252.114 125.214C252.02 125.403 251.878 125.591 251.689 125.78C251.312 125.969 250.981 126.205 250.698 126.488C249.66 127.149 249.424 127.904 249.99 128.754C251.029 129.792 252.114 130.028 253.247 129.462C253.908 128.99 254.569 128.565 255.229 128.188C255.418 128.093 255.654 127.904 255.938 127.621C260.941 123.939 262.215 119.644 259.761 114.735C258.534 112.281 256.882 110.062 254.805 108.08C252.728 106.098 250.179 104.115 247.158 102.133C244.043 100.245 240.55 98.1208 236.68 95.7607C234.131 94.2503 230.308 91.9847 225.21 88.9639C224.36 88.3975 223.7 88.0199 223.228 87.8311C222.095 85.8486 220.679 84.055 218.979 82.4502C227.664 86.0374 234.461 88.1615 239.37 88.8223C245.317 89.8607 250.415 89.1055 254.663 86.5566C258.911 84.0078 260.186 79.0046 258.486 71.5469C256.032 64.0892 252.917 56.6315 249.141 49.1738C245.27 41.7161 241.117 34.4473 236.68 27.3672C236.396 26.8008 235.452 25.2432 233.848 22.6943C232.148 20.1455 230.166 17.3135 227.9 14.1982C225.54 10.9886 223.275 8.06217 221.104 5.41895C218.932 2.77572 217.233 1.1237 216.006 0.462891C214.684 -0.292318 214.165 0.510091 214.448 2.87012C222.189 10.611 228.939 19.2015 234.697 28.6416C240.456 37.9873 245.412 47.7106 249.565 57.8115C250.037 59.1331 250.557 60.502 251.123 61.918C251.689 63.4284 252.256 65.5052 252.822 68.1484C253.389 70.7917 252.822 73.3877 251.123 75.9365C245.459 79.335 238.096 79.4294 229.033 76.2197C219.971 72.9157 211.994 68.526 205.103 63.0508C202.271 62.0124 200.43 63.0036 199.58 66.0244C198.636 69.0452 199.202 71.3109 201.279 72.8213C203.923 74.6149 206.519 76.2669 209.067 77.7773C211.899 80.3262 214.165 82.639 215.864 84.7158C213.882 83.8662 211.569 82.9222 208.926 81.8838C207.51 81.3174 206.047 80.7038 204.536 80.043C200.76 78.627 198.4 79.6654 197.456 83.1582C196.323 86.8398 196.229 90.3799 197.173 93.7783C197.834 96.3271 199.438 99.2064 201.987 102.416C204.442 105.154 206.991 107.561 209.634 109.638C212.466 111.715 215.345 112.706 218.271 112.611C222.142 112.706 224.88 110.629 226.484 106.381C227.523 101.472 227.004 97.1296 224.927 93.3535C225.493 93.6367 226.06 93.9199 226.626 94.2031Z" fill="#C0BCBD" fill-opacity="0.23"/>
</svg>
