<?xml version="1.0" encoding="utf-8"?><svg viewBox="0 0 125 30" xmlns="http://www.w3.org/2000/svg" xmlns:xlink="http://www.w3.org/1999/xlink"><style>:root>svg{display:none}:root>svg:target{display:block}</style><svg fill="none" viewBox="0 0 125 4" id="ic_big_wave" xmlns="http://www.w3.org/2000/svg"><path d="M5.462 3.204C3.339 3.204 3.708 1 1 1M14.416 3.204C12.293 3.204 12.662 1 9.954 1M5.462 3.204C7.585 3.204 7.216 1 9.924 1M14.416 3.204C16.54 3.204 16.17 1 18.878 1M75.361 3.204C73.238 3.204 73.607 1 70.899 1M84.315 3.204C82.192 3.204 82.561 1 79.854 1M75.361 3.204C77.484 3.204 77.115 1 79.823 1M84.315 3.204C86.44 3.204 86.07 1 88.777 1M40.411 3.204C38.288 3.204 38.657 1 35.95 1M49.366 3.204C47.243 3.204 47.612 1 44.904 1M40.411 3.204C42.535 3.204 42.165 1 44.873 1M49.366 3.204C51.489 3.204 51.12 1 53.828 1M110.311 3.204c-2.124 0-1.754-2.204-4.462-2.204M119.265 3.204c-2.123 0-1.754-2.204-4.462-2.204M110.311 3.204c2.123 0 1.754-2.204 4.461-2.204M119.265 3.204c2.123 0 1.754-2.204 4.462-2.204M22.937 3.204C20.813 3.204 21.183 1 18.475 1M31.89 3.204C29.769 3.204 30.138 1 27.43 1M22.937 3.204C25.06 3.204 24.69 1 27.398 1M31.89 3.204C34.015 3.204 33.646 1 36.354 1M92.836 3.204C90.713 3.204 91.082 1 88.374 1M101.79 3.204C99.667 3.204 100.036 1 97.328 1M92.836 3.204C94.959 3.204 94.59 1 97.298 1M101.79 3.204c2.123 0 1.754-2.204 4.462-2.204M57.886 3.204C55.763 3.204 56.132 1 53.424 1M66.84 3.204C64.718 3.204 65.088 1 62.38 1M57.886 3.204C60.01 3.204 59.64 1 62.348 1M66.84 3.204C68.965 3.204 68.595 1 71.303 1" stroke="currentColor" stroke-miterlimit="10" stroke-linecap="round" stroke-linejoin="round"/></svg><svg viewBox="0 0 12 13" id="ic_buttonUp" xmlns="http://www.w3.org/2000/svg"><path d="M.293 6.293l1.414 1.414L6 3.414l4.293 4.293 1.414-1.414L6 .586.293 6.293z"/><path d="M.293 11.293l1.414 1.414L6 8.414l4.293 4.293 1.414-1.414L6 5.586.293 11.293z"/></svg><svg viewBox="0 0 20 18" id="ic_cart" xmlns="http://www.w3.org/2000/svg"><path d="M19.822 4.431A1 1 0 0 0 19 4H5.333L4.179 1.23A1.994 1.994 0 0 0 2.333 0H0v2h2.333l4.744 11.385A1 1 0 0 0 8 14h8c.417 0 .79-.259.937-.648l3-8a1 1 0 0 0-.115-.921zM15.307 12h-6.64l-2.5-6h11.39l-2.25 6zM8.5 18a1.5 1.5 0 1 0 0-3 1.5 1.5 0 0 0 0 3zM15.5 18a1.5 1.5 0 1 0 0-3 1.5 1.5 0 0 0 0 3z"/></svg><svg viewBox="0 0 20 16" id="ic_email" xmlns="http://www.w3.org/2000/svg"><path d="M18 0H4C2.897 0 2 .897 2 2v5h2V4l6.4 4.8a1.001 1.001 0 0 0 1.2 0L18 4v9h-8v2h8c1.103 0 2-.897 2-2V2c0-1.103-.897-2-2-2zm-7 6.75L4.666 2h12.668L11 6.75z"/><path d="M0 8h7v2H0V8zm2 3h6v2H2v-2zm3 3h4v2H5v-2z"/></svg><svg viewBox="0 0 26 26" id="ic_facebook" xmlns="http://www.w3.org/2000/svg"><path d="M13.001.503C6.1.503.502 6.099.502 13c0 6.238 4.57 11.408 10.547 12.349v-8.735H7.874v-3.614h3.175v-2.753c0-3.135 1.866-4.864 4.72-4.864 1.367 0 2.8.244 2.8.244V8.7h-1.58c-1.55 0-2.035.965-2.035 1.954v2.344h3.463l-.553 3.614h-2.91v8.735C20.93 24.41 25.5 19.24 25.5 13 25.5 6.1 19.904.503 13 .503z"/></svg><svg viewBox="0 0 20 19" id="ic_favorite" xmlns="http://www.w3.org/2000/svg"><path d="M10 1.595A5.904 5.904 0 0 0 6.004.037a5.942 5.942 0 0 0-4.213 1.758c-2.353 2.363-2.352 6.059.002 8.412l7.332 7.332c.17.299.498.492.875.492a.99.99 0 0 0 .792-.409l7.415-7.415c2.354-2.354 2.354-6.049-.002-8.416A5.938 5.938 0 0 0 13.996.037 5.906 5.906 0 0 0 10 1.595zm6.791 1.61c1.563 1.571 1.564 4.025.002 5.588L10 15.586 3.207 8.793C1.645 7.23 1.646 4.776 3.205 3.209a3.953 3.953 0 0 1 2.799-1.172c1.045 0 2.035.416 2.789 1.17l.5.5a.999.999 0 0 0 1.414 0l.5-.5c1.512-1.509 4.074-1.505 5.584-.002z"/></svg><svg viewBox="0 0 24 24" id="ic_instagram" xmlns="http://www.w3.org/2000/svg"><path d="M23.184 7.381a8.16 8.16 0 0 0-.524-2.77 5.762 5.762 0 0 0-3.291-3.291 8.258 8.258 0 0 0-2.733-.525C15.434.741 15.053.726 12 .726s-3.444 0-4.638.069a8.257 8.257 0 0 0-2.73.525A5.759 5.759 0 0 0 1.34 4.611a8.192 8.192 0 0 0-.524 2.732C.762 8.546.746 8.928.746 11.98c0 3.053 0 3.442.07 4.637.019.935.195 1.858.524 2.734a5.762 5.762 0 0 0 3.292 3.29 8.23 8.23 0 0 0 2.732.563c1.203.053 1.585.07 4.637.07 3.053 0 3.444 0 4.638-.07a8.237 8.237 0 0 0 2.732-.524 5.77 5.77 0 0 0 3.292-3.291 8.232 8.232 0 0 0 .523-2.734c.054-1.203.07-1.584.07-4.638-.002-3.052-.002-3.44-.072-4.636zM11.992 17.753a5.777 5.777 0 0 1-5.778-5.78 5.78 5.78 0 1 1 5.779 5.779zm6.01-10.424a1.346 1.346 0 0 1-1.348-1.348 1.346 1.346 0 1 1 2.694 0c0 .745-.603 1.348-1.347 1.348z"/><path d="M11.992 15.727a3.754 3.754 0 1 0 0-7.507 3.754 3.754 0 0 0 0 7.507z"/></svg><svg viewBox="0 0 16 20" id="ic_location" xmlns="http://www.w3.org/2000/svg"><path d="M8 12c2.206 0 4-1.794 4-4s-1.794-4-4-4-4 1.794-4 4 1.794 4 4 4zm0-6c1.103 0 2 .897 2 2s-.897 2-2 2-2-.897-2-2 .897-2 2-2z"/><path d="M7.42 19.814a.998.998 0 0 0 1.16 0C8.884 19.599 16.03 14.44 16 8c0-4.411-3.589-8-8-8-4.41 0-8 3.589-8 7.995-.029 6.445 7.116 11.604 7.42 11.819zM8 2c3.31 0 6 2.691 6 6.005.021 4.438-4.388 8.423-6 9.73C6.39 16.427 1.98 12.441 2 8c0-3.309 2.691-6 6-6z"/></svg><svg viewBox="0 0 26 30" id="ic_pdf" xmlns="http://www.w3.org/2000/svg"><path d="M6.837 19.301c0-.498-.346-.795-.956-.795-.25 0-.418.024-.506.048v1.598c.104.024.233.032.41.032.65 0 1.052-.329 1.052-.883zM10.613 18.523c-.274 0-.45.023-.554.047v3.54c.104.025.273.025.425.025 1.108.008 1.831-.602 1.831-1.894.008-1.124-.65-1.718-1.702-1.718z"/><path d="M17.628 0H5.58a3.198 3.198 0 0 0-3.193 3.193V15h-.312c-.71 0-1.286.576-1.286 1.287v7.803c0 .71.576 1.286 1.286 1.286h.312v1.431A3.196 3.196 0 0 0 5.58 30h16.44a3.196 3.196 0 0 0 3.193-3.193V7.557L17.628 0zM4.163 17.695c.377-.064.907-.112 1.654-.112.754 0 1.292.144 1.654.433.345.273.578.723.578 1.253 0 .53-.177.98-.498 1.284-.418.394-1.035.57-1.758.57-.161 0-.305-.008-.418-.023v1.934H4.163v-5.34zm17.857 10.35H5.58a1.239 1.239 0 0 1-1.238-1.238v-1.43H19.67c.71 0 1.286-.576 1.286-1.287v-7.803c0-.711-.576-1.287-1.286-1.287H4.342V3.193c0-.68.556-1.236 1.237-1.236l11.318-.011v4.183c0 1.222.991 2.214 2.214 2.214l4.098-.012.046 18.476c0 .683-.554 1.238-1.235 1.238zM8.83 23.01v-5.315c.45-.072 1.036-.112 1.654-.112 1.028 0 1.694.184 2.216.578.563.417.916 1.083.916 2.04 0 1.035-.378 1.75-.9 2.191-.57.474-1.437.698-2.496.698a10.6 10.6 0 0 1-1.39-.08zm8.763-3.147v.995H15.65v2.177h-1.228v-5.412h3.307v1.003h-2.08v1.237h1.944z"/></svg><svg viewBox="0 0 20 20" id="ic_phone" xmlns="http://www.w3.org/2000/svg"><path d="M15.707 10.293a.999.999 0 0 0-1.414 0L12.7 11.887c-.739-.22-2.118-.72-2.992-1.594-.874-.874-1.374-2.253-1.594-2.992l1.594-1.594a.999.999 0 0 0 0-1.414l-4-4a.999.999 0 0 0-1.414 0L1.581 3.005c-.38.38-.594.902-.586 1.435.023 1.424.4 6.37 4.298 10.268 3.898 3.898 8.844 4.274 10.27 4.298h.027c.528 0 1.027-.208 1.405-.586l2.712-2.712a.999.999 0 0 0 0-1.414l-4-4.001zm-.127 6.712c-1.248-.021-5.518-.356-8.873-3.712-3.366-3.366-3.692-7.651-3.712-8.874L5 2.414 7.586 5 6.293 6.293a1 1 0 0 0-.272.912c.024.115.611 2.842 2.271 4.502 1.66 1.66 4.387 2.247 4.502 2.271a.991.991 0 0 0 .912-.271L15 12.414 17.586 15l-2.006 2.005z"/></svg><svg viewBox="0 0 26 26" id="ic_pinterest" xmlns="http://www.w3.org/2000/svg"><path d="M12.988.5C6.09.5.5 6.091.5 12.988c0 5.29 3.291 9.812 7.938 11.632-.11-.988-.208-2.508.042-3.585.227-.975 1.465-6.207 1.465-6.207s-.374-.75-.374-1.855c0-1.736 1.007-3.032 2.26-3.032 1.067 0 1.58.8 1.58 1.759 0 1.073-.682 2.674-1.034 4.159-.293 1.242.624 2.256 1.85 2.256 2.218 0 3.925-2.34 3.925-5.719 0-2.99-2.148-5.08-5.216-5.08-3.553 0-5.64 2.665-5.64 5.419 0 1.072.414 2.224.93 2.85a.375.375 0 0 1 .086.357c-.095.394-.306 1.243-.346 1.417-.055.228-.181.277-.418.167-1.56-.726-2.534-3.006-2.534-4.838 0-3.94 2.861-7.557 8.251-7.557 4.332 0 7.699 3.087 7.699 7.213 0 4.305-2.714 7.766-6.48 7.766-1.267 0-2.455-.656-2.863-1.433l-.779 2.968c-.28 1.085-1.042 2.445-1.55 3.275 1.168.361 2.41.556 3.697.556 6.896 0 12.487-5.591 12.487-12.487C25.476 6.092 19.884.5 12.988.5z"/></svg><svg viewBox="0 0 20 16" id="ic_price" xmlns="http://www.w3.org/2000/svg"><path d="M15.868.504A1 1 0 0 0 15 0H1a1 1 0 0 0-.868 1.496L3.849 8 .132 14.504A1 1 0 0 0 1 16h14a1 1 0 0 0 .868-.504l4-7a.998.998 0 0 0 0-.992l-4-7zM14.42 14H2.724l3.145-5.504a.998.998 0 0 0 0-.992L2.724 2H14.42l3.429 6-3.429 6z"/></svg><svg viewBox="0 0 19 19" id="ic_search" xmlns="http://www.w3.org/2000/svg"><path d="M8 16a7.952 7.952 0 0 0 4.897-1.688l4.396 4.396 1.414-1.414-4.396-4.396A7.952 7.952 0 0 0 16 8c0-4.411-3.589-8-8-8S0 3.589 0 8s3.589 8 8 8zM8 2c3.309 0 6 2.691 6 6s-2.691 6-6 6-6-2.691-6-6 2.691-6 6-6z"/><path d="M9.412 6.586C9.79 6.966 10 7.468 10 8h2a3.977 3.977 0 0 0-1.174-2.828c-1.514-1.512-4.14-1.512-5.652 0l1.412 1.416c.76-.758 2.07-.756 2.826-.002z"/></svg><svg viewBox="0 0 13 12" id="ic_slider_arrow" xmlns="http://www.w3.org/2000/svg"><path d="M7.87 10.735L6.5 12 0 6l6.5-6 1.37 1.265-4.16 3.84H13v1.79H3.71l4.16 3.84z"/></svg><svg viewBox="0 0 11 11" id="ic_star" xmlns="http://www.w3.org/2000/svg"><path d="M2.986 6.565l-.683 2.957a.458.458 0 0 0 .701.484L5.5 8.343l2.495 1.663a.46.46 0 0 0 .696-.507l-.839-2.933 2.08-1.87a.459.459 0 0 0-.271-.798L7.048 3.69l-1.13-2.503a.457.457 0 0 0-.836 0L3.952 3.69l-2.613.207a.457.457 0 0 0-.284.785l1.931 1.883zm1.308-1.983a.458.458 0 0 0 .381-.269L5.5 2.49l.824 1.824a.458.458 0 0 0 .382.269l1.82.144-1.5 1.35a.46.46 0 0 0-.133.466l.574 2.01L5.755 7.41a.456.456 0 0 0-.509 0l-1.79 1.193.482-2.083a.458.458 0 0 0-.126-.431L2.419 4.731l1.875-.149z"/></svg><svg viewBox="0 0 18 19" id="ic_user" xmlns="http://www.w3.org/2000/svg"><path d="M9 0C6.243 0 4 2.243 4 5s2.243 5 5 5 5-2.243 5-5-2.243-5-5-5zm0 8C7.346 8 6 6.654 6 5s1.346-3 3-3 3 1.346 3 3-1.346 3-3 3zm9 11v-1c0-3.859-3.141-7-7-7H7c-3.86 0-7 3.141-7 7v1h2v-1c0-2.757 2.243-5 5-5h4c2.757 0 5 2.243 5 5v1h2z"/></svg><svg fill="none" viewBox="0 0 20 6" id="ic_wave" xmlns="http://www.w3.org/2000/svg"><path d="M5.596 5.266C3.409 5.266 3.789 1 1 1M14.82 5.266C12.631 5.266 13.012 1 10.222 1M5.596 5.266C7.783 5.266 7.403 1 10.192 1M14.82 5.266C17.005 5.266 16.625 1 19.414 1" stroke="currentColor" stroke-miterlimit="10" stroke-linecap="round" stroke-linejoin="round"/></svg></svg>